<svg id="visual" viewBox="0 0 900 600" width="900" height="600" xmlns="http://www.w3.org/2000/svg" xmlns:xlink="http://www.w3.org/1999/xlink" version="1.1"><rect x="0" y="0" width="900" height="600" fill="#001122"></rect><defs><linearGradient id="grad1_0" x1="33.3%" y1="100%" x2="100%" y2="0%"><stop offset="20%" stop-color="#fa7d3c" stop-opacity="1"></stop><stop offset="80%" stop-color="#fa7d3c" stop-opacity="1"></stop></linearGradient></defs><defs><linearGradient id="grad1_1" x1="33.3%" y1="100%" x2="100%" y2="0%"><stop offset="20%" stop-color="#fa7d3c" stop-opacity="1"></stop><stop offset="80%" stop-color="#cf4a60" stop-opacity="1"></stop></linearGradient></defs><defs><linearGradient id="grad1_2" x1="33.3%" y1="100%" x2="100%" y2="0%"><stop offset="20%" stop-color="#84376a" stop-opacity="1"></stop><stop offset="80%" stop-color="#cf4a60" stop-opacity="1"></stop></linearGradient></defs><defs><linearGradient id="grad1_3" x1="33.3%" y1="100%" x2="100%" y2="0%"><stop offset="20%" stop-color="#84376a" stop-opacity="1"></stop><stop offset="80%" stop-color="#362951" stop-opacity="1"></stop></linearGradient></defs><defs><linearGradient id="grad1_4" x1="33.3%" y1="100%" x2="100%" y2="0%"><stop offset="20%" stop-color="#001122" stop-opacity="1"></stop><stop offset="80%" stop-color="#362951" stop-opacity="1"></stop></linearGradient></defs><defs><linearGradient id="grad2_0" x1="0%" y1="100%" x2="66.7%" y2="0%"><stop offset="20%" stop-color="#fa7d3c" stop-opacity="1"></stop><stop offset="80%" stop-color="#fa7d3c" stop-opacity="1"></stop></linearGradient></defs><defs><linearGradient id="grad2_1" x1="0%" y1="100%" x2="66.7%" y2="0%"><stop offset="20%" stop-color="#cf4a60" stop-opacity="1"></stop><stop offset="80%" stop-color="#fa7d3c" stop-opacity="1"></stop></linearGradient></defs><defs><linearGradient id="grad2_2" x1="0%" y1="100%" x2="66.7%" y2="0%"><stop offset="20%" stop-color="#cf4a60" stop-opacity="1"></stop><stop offset="80%" stop-color="#84376a" stop-opacity="1"></stop></linearGradient></defs><defs><linearGradient id="grad2_3" x1="0%" y1="100%" x2="66.7%" y2="0%"><stop offset="20%" stop-color="#362951" stop-opacity="1"></stop><stop offset="80%" stop-color="#84376a" stop-opacity="1"></stop></linearGradient></defs><defs><linearGradient id="grad2_4" x1="0%" y1="100%" x2="66.7%" y2="0%"><stop offset="20%" stop-color="#362951" stop-opacity="1"></stop><stop offset="80%" stop-color="#001122" stop-opacity="1"></stop></linearGradient></defs><g transform="translate(900, 600)"><path d="M-351.5 0C-323.1 -36.1 -294.6 -72.3 -281.8 -116.7C-269 -161.2 -271.8 -213.9 -248.6 -248.6C-225.3 -283.3 -175.9 -300 -130.1 -314.1C-84.3 -328.3 -42.2 -339.9 0 -351.5L0 0Z" fill="#161f3b"></path><path d="M-281.2 0C-258.5 -28.9 -235.7 -57.8 -225.4 -93.4C-215.2 -128.9 -217.5 -171.1 -198.9 -198.9C-180.2 -226.6 -140.7 -240 -104.1 -251.3C-67.5 -262.6 -33.7 -271.9 0 -281.2L0 0Z" fill="#5c3162"></path><path d="M-210.9 0C-193.8 -21.7 -176.8 -43.4 -169.1 -70C-161.4 -96.7 -163.1 -128.3 -149.1 -149.1C-135.2 -170 -105.5 -180 -78.1 -188.5C-50.6 -197 -25.3 -203.9 0 -210.9L0 0Z" fill="#ac3d69"></path><path d="M-140.6 0C-129.2 -14.5 -117.8 -28.9 -112.7 -46.7C-107.6 -64.5 -108.7 -85.5 -99.4 -99.4C-90.1 -113.3 -70.4 -120 -52 -125.6C-33.7 -131.3 -16.9 -136 0 -140.6L0 0Z" fill="#ea6051"></path><path d="M-70.3 0C-64.6 -7.2 -58.9 -14.5 -56.4 -23.3C-53.8 -32.2 -54.4 -42.8 -49.7 -49.7C-45.1 -56.7 -35.2 -60 -26 -62.8C-16.9 -65.7 -8.4 -68 0 -70.3L0 0Z" fill="#fa7d3c"></path></g><g transform="translate(0, 0)"><path d="M351.5 0C347.3 46.8 343 93.7 324.8 134.5C306.6 175.4 274.4 210.2 240.4 240.4C206.4 270.7 170.5 296.4 130.1 314.1C89.7 331.9 44.9 341.7 0 351.5L0 0Z" fill="#161f3b"></path><path d="M281.2 0C277.8 37.5 274.4 75 259.8 107.6C245.3 140.3 219.5 168.1 192.3 192.3C165.1 216.5 136.4 237.1 104.1 251.3C71.8 265.5 35.9 273.4 0 281.2L0 0Z" fill="#5c3162"></path><path d="M210.9 0C208.4 28.1 205.8 56.2 194.9 80.7C183.9 105.2 164.7 126.1 144.2 144.2C123.8 162.4 102.3 177.8 78.1 188.5C53.8 199.1 26.9 205 0 210.9L0 0Z" fill="#ac3d69"></path><path d="M140.6 0C138.9 18.7 137.2 37.5 129.9 53.8C122.6 70.1 109.8 84.1 96.2 96.2C82.6 108.3 68.2 118.5 52 125.6C35.9 132.8 17.9 136.7 0 140.6L0 0Z" fill="#ea6051"></path><path d="M70.3 0C69.5 9.4 68.6 18.7 65 26.9C61.3 35.1 54.9 42 48.1 48.1C41.3 54.1 34.1 59.3 26 62.8C17.9 66.4 9 68.3 0 70.3L0 0Z" fill="#fa7d3c"></path></g></svg>